<svg width="43" height="33" viewBox="0 0 43 33" fill="none" xmlns="http://www.w3.org/2000/svg">
<path d="M40.1514 13.2487H39.7651C39.2823 8.24786 35.0428 4.31817 29.9274 4.31817H28.1355V2.80468C28.1355 1.2575 26.878 0 25.3308 0H3.32006C1.77288 0 0.515381 1.2575 0.515381 2.80468V25.04C0.515381 26.5872 1.77288 27.8447 3.32006 27.8447H7.77296C8.2041 30.5146 10.5237 32.5603 13.3149 32.5603C16.1062 32.5603 18.4258 30.5146 18.8569 27.8447H25.9641C26.3952 30.5146 28.7148 32.5603 31.5061 32.5603C34.2973 32.5603 36.6169 30.5146 37.048 27.8447H40.1536C41.7008 27.8447 42.9583 26.5872 42.9583 25.04V16.0534C42.9583 14.5062 41.7008 13.2487 40.1536 13.2487H40.1514ZM13.5126 31.213C11.166 31.213 9.25951 29.3043 9.25951 26.9577C9.25951 24.6111 11.1682 22.7024 13.5126 22.7024C15.8569 22.7024 17.5368 24.38 17.5368 26.7266C17.5368 29.0732 15.8591 31.213 13.5126 31.213ZM26.3391 3.36831V18.2989H6.80289C6.30662 18.2989 5.90467 18.7008 5.90467 19.1971C5.90467 19.6934 6.30662 20.0953 6.80289 20.0953H26.3391V24.7458C26.1639 25.1568 26.0359 25.5924 25.9618 26.046H18.8547C18.4235 23.3761 16.1039 21.3304 13.3127 21.3304C10.5215 21.3304 8.20186 23.3761 7.77071 26.046H3.32006C2.76316 26.046 2.31181 25.5946 2.31181 25.0377V2.80468C2.31181 2.24778 2.76316 1.79643 3.32006 1.79643H25.3308C25.8877 1.79643 26.3391 2.24778 26.3391 2.80468V3.36831ZM31.4769 31.2916C29.1101 31.2916 27.1834 29.3649 27.1834 26.9981C27.1834 24.6313 29.1101 22.7046 31.4769 22.7046C33.8437 22.7046 35.7703 24.6313 35.7703 26.9981C35.7703 29.3649 33.8437 31.2916 31.4769 31.2916ZM41.1596 19.6103C41.1596 19.6934 41.0923 19.7607 41.0092 19.7607H39.5136C39.4306 19.7607 39.3632 19.6934 39.3632 19.6103V18.3393C39.3632 18.2562 39.4306 18.1889 39.5136 18.1889H41.0092C41.0923 18.1889 41.1596 18.2562 41.1596 18.3393V19.6103ZM41.1596 16.3992C41.1102 16.3947 41.0608 16.3924 41.0092 16.3924H39.5136C38.4403 16.3924 37.5668 17.2659 37.5668 18.3393V19.6103C37.5668 20.6837 38.4403 21.5572 39.5136 21.5572H41.0092C41.0608 21.5572 41.1102 21.5527 41.1596 21.5504V25.04C41.1596 25.5969 40.7083 26.0482 40.1514 26.0482H37.0458C36.6146 23.3783 34.295 21.3326 31.5038 21.3326C30.2418 21.3326 29.0741 21.7525 28.1355 22.4576V6.1146H29.9274C34.0547 6.1146 37.4814 9.24039 37.9575 13.2487H31.5038C31.0075 13.2487 30.6056 13.6506 30.6056 14.1469C30.6056 14.6432 31.0075 15.0451 31.5038 15.0451H40.1514C40.7083 15.0451 41.1596 15.4965 41.1596 16.0534V16.3992Z" fill="white"/>
</svg>
