<svg width="30" height="27" viewBox="0 0 30 27" fill="none" xmlns="http://www.w3.org/2000/svg">
<path d="M28.6461 18.7065H9.30746L10.2784 16.7288L26.4118 16.6996C26.9574 16.6996 27.425 16.3099 27.5225 15.7708L29.7567 3.26483C29.8152 2.93684 29.7275 2.5991 29.5132 2.34255C29.4072 2.21629 29.2751 2.11458 29.1259 2.04449C28.9768 1.97439 28.8141 1.93759 28.6493 1.93662L8.12538 1.86842L7.95002 1.04357C7.83961 0.517478 7.36548 0.134277 6.8264 0.134277H1.80907C1.50504 0.134277 1.21346 0.255053 0.998479 0.470036C0.783496 0.685019 0.66272 0.976599 0.66272 1.28063C0.66272 1.58466 0.783496 1.87624 0.998479 2.09123C1.21346 2.30621 1.50504 2.42698 1.80907 2.42698H5.89763L6.66403 6.07064L8.5508 15.2057L6.1217 19.1709C5.99555 19.3412 5.91957 19.5433 5.90236 19.7545C5.88514 19.9657 5.92737 20.1775 6.02428 20.366C6.21912 20.7524 6.61207 20.996 7.04723 20.996H9.08663C8.65186 21.5734 8.41702 22.2768 8.41765 22.9996C8.41765 24.8377 9.91149 26.3315 11.7495 26.3315C13.5876 26.3315 15.0814 24.8377 15.0814 22.9996C15.0814 22.2755 14.8411 21.5708 14.4125 20.996H19.6441C19.2094 21.5734 18.9745 22.2768 18.9751 22.9996C18.9751 24.8377 20.469 26.3315 22.307 26.3315C24.1451 26.3315 25.6389 24.8377 25.6389 22.9996C25.6389 22.2755 25.3986 21.5708 24.97 20.996H28.6493C29.2793 20.996 29.7957 20.4829 29.7957 19.8496C29.7938 19.5459 29.6719 19.2553 29.4565 19.0411C29.2411 18.827 28.9498 18.7067 28.6461 18.7065ZM8.60276 4.12865L27.3016 4.19036L25.4701 14.4458L10.7818 14.4718L8.60276 4.12865ZM11.7495 24.0258C11.1845 24.0258 10.7234 23.5647 10.7234 22.9996C10.7234 22.4346 11.1845 21.9734 11.7495 21.9734C12.3146 21.9734 12.7757 22.4346 12.7757 22.9996C12.7757 23.2718 12.6676 23.5328 12.4752 23.7253C12.2827 23.9177 12.0217 24.0258 11.7495 24.0258ZM22.307 24.0258C21.742 24.0258 21.2808 23.5647 21.2808 22.9996C21.2808 22.4346 21.742 21.9734 22.307 21.9734C22.8721 21.9734 23.3332 22.4346 23.3332 22.9996C23.3332 23.2718 23.2251 23.5328 23.0327 23.7253C22.8402 23.9177 22.5792 24.0258 22.307 24.0258Z" fill="black" fill-opacity="0.85"/>
</svg>
