<svg width="23" height="19" viewBox="0 0 23 19" fill="none" xmlns="http://www.w3.org/2000/svg">
<path d="M13.3524 9.19096L22.1497 0.40861C22.2972 0.262658 22.1732 0.0409241 21.9453 0.0409241H19.2709C19.1134 0.0409241 18.9626 0.099866 18.8587 0.200909L11.6029 7.44516L4.34719 0.200909C4.24665 0.099866 4.09584 0.0409241 3.93497 0.0409241H1.26057C1.03267 0.0409241 0.908671 0.262658 1.05613 0.40861L9.85351 9.19096L1.05613 17.9733C1.0231 18.0058 1.00191 18.0456 0.995072 18.088C0.988237 18.1303 0.996044 18.1733 1.01757 18.2121C1.03909 18.2508 1.07343 18.2835 1.1165 18.3064C1.15958 18.3292 1.20958 18.3412 1.26057 18.341H3.93497C4.09248 18.341 4.2433 18.2821 4.34719 18.181L11.6029 10.9368L18.8587 18.181C18.9592 18.2821 19.11 18.341 19.2709 18.341H21.9453C22.1732 18.341 22.2972 18.1193 22.1497 17.9733L13.3524 9.19096Z" fill="black" fill-opacity="0.85"/>
</svg>
