<svg width="37" height="26" viewBox="0 0 37 26" fill="none" xmlns="http://www.w3.org/2000/svg">
<path d="M36.3379 21.4683C36.3379 22.396 35.5015 22.4686 35.4337 22.4686C34.8228 22.4731 34.212 22.4686 33.6034 22.4799C33.5158 22.4799 33.38 22.5366 33.3494 22.6069C33.2487 22.8383 33.1852 23.0901 33.1086 23.3327C33.0976 23.3486 33.0867 23.3668 33.0735 23.3826C33.0385 23.453 33.0013 23.521 32.9662 23.5913L32.478 24.274L32.3532 24.4033L32.2197 24.5462L31.9548 24.7753L31.6482 24.9863L31.333 25.1564C31.241 25.1949 31.1491 25.2312 31.0571 25.2698L31.0155 25.2857C30.8535 25.3356 30.6937 25.3855 30.5317 25.4376L30.1091 25.4989C29.7807 25.4943 29.4501 25.4898 29.1217 25.4853C29.091 25.4853 29.0582 25.4807 29.0275 25.4717L28.524 25.3288C28.489 25.3242 28.4539 25.3197 28.4211 25.3151L28.1956 25.2199L27.8124 24.984C27.5475 24.7617 27.2848 24.5394 27.0199 24.3194C27.0024 24.3058 26.987 24.2877 26.9717 24.2718L26.6127 23.8408C26.4069 23.4008 26.1989 22.9608 25.9821 22.4958H25.7873C25.4238 22.4912 25.0582 22.4799 24.6948 22.4799C20.721 22.4799 16.7473 22.4799 12.7736 22.4799C12.5743 22.4799 12.3751 22.4799 12.2 22.4799C12.154 22.4799 12.1146 22.5071 12.0949 22.5502C11.9066 22.9585 11.6548 23.5482 11.5519 23.7319C11.449 23.9157 11.2235 24.2423 10.8513 24.6211C10.3959 25.0725 9.44572 25.5011 8.71228 25.5011H8.55464C7.58255 25.5011 6.9126 25.238 6.79438 25.1768C6.13756 24.8252 5.59241 24.3353 5.15891 23.7093L5.10198 23.6072C4.84145 23.1876 4.70352 22.5684 4.71009 22.5525C4.70571 22.4958 4.62689 22.4618 4.60718 22.4799C3.52344 22.4799 2.44189 22.4844 1.35814 22.4776C0.563397 22.4731 0.337891 22.6092 0.337891 20.7833C0.337891 20.6699 0.337891 20.5565 0.337891 20.4431V19.9894C0.337891 19.1956 0.388246 1.85525 0.388246 1.85525C0.388246 1.85525 0.326944 0.519285 2.08721 0.519285C7.38113 0.519285 18.7834 0.498871 20.4255 0.498871C22.0675 0.498871 22.0653 0.993336 22.0653 1.64658C22.085 1.95505 22.0587 16.1879 22.0719 16.2719C22.1113 16.5259 22.328 16.7006 22.5404 16.6847C22.5842 16.6824 22.6521 16.6824 22.7287 16.6824C22.9367 16.6824 23.1075 16.5123 23.1075 16.2968C23.1075 14.5049 23.1075 6.96321 23.1075 6.43926C23.1096 6.41658 23.1075 6.29183 23.1075 6.14213C23.1075 5.80644 23.3636 5.52972 23.6898 5.51384C23.9766 5.50023 30.5382 5.47301 31.1031 5.47075C31.8387 5.47075 32.0292 5.83592 32.0817 5.87675C32.2087 6.1013 36.2678 13.9901 36.2678 13.9901M2.4178 20.5701C2.92793 20.5769 3.84966 20.5882 4.38606 20.5928C4.53931 20.5928 4.67724 20.4975 4.73417 20.3501C4.84145 20.0734 5.01003 19.6356 5.0998 19.4292C5.10855 19.4088 5.11731 19.3929 5.13045 19.3748L5.23335 19.216L5.8617 18.5038L6.20543 18.2134C6.2536 18.1908 6.30614 18.1749 6.34993 18.1454C6.82503 17.8347 7.34172 17.6487 7.90001 17.592C8.1715 17.567 8.84583 17.6101 8.99908 17.6214C9.02098 17.6214 9.04068 17.626 9.06039 17.6328L9.78507 17.8732C9.79821 17.8777 9.81135 17.8823 9.82448 17.8891L10.4309 18.2112L10.617 18.3427L10.9542 18.6557C10.9542 18.6557 10.9651 18.6648 10.9717 18.6693C11.1053 18.8145 11.2301 18.9506 11.3636 19.0958C11.4512 19.2704 11.541 19.4428 11.6285 19.6175C11.6482 19.656 11.6658 19.6923 11.6855 19.7309C11.6964 19.7309 11.8891 20.2321 11.9963 20.5066C12.0358 20.6109 12.1343 20.6744 12.2416 20.6722C12.7714 20.654 14.2602 20.6018 14.5908 20.5996C15.9832 20.595 17.3778 20.5973 18.7703 20.5996C19.0133 20.5996 19.2563 20.6223 19.5015 20.6336C19.7577 20.6336 20.0117 20.6336 20.2678 20.6336H20.4298C20.4671 20.6177 20.5021 20.5996 20.5393 20.5792C20.5393 15.1967 20.5349 4.77441 20.5327 2.65365C20.5327 2.44271 20.3685 2.2726 20.1627 2.2726C18.5098 2.2726 11.7161 2.26579 8.17807 2.26352C6.22733 2.26352 4.2744 2.26126 2.32366 2.26806C2.23608 2.26806 1.94271 2.19094 1.93614 2.77387C1.93176 3.22977 2.03028 17.6509 2.0478 20.1845C2.0478 20.3954 2.212 20.5656 2.41342 20.5678L2.4178 20.5701ZM24.7999 20.1505C24.7999 20.4 24.9947 20.5996 25.2355 20.5973C25.4435 20.5973 25.6756 20.5905 25.807 20.5814C26.2208 20.5814 26.1441 20.2571 26.1792 20.1074C26.1792 19.216 27.0286 18.3518 27.4665 18.0774C27.9044 17.8029 28.1408 17.685 29.1852 17.601C29.5902 17.5693 30.2624 17.6078 30.6652 17.6645C31.3636 17.7621 32.0051 18.1204 32.4758 18.6625C32.478 18.6671 32.4824 18.6693 32.4846 18.6739C32.5415 18.7442 33.1458 19.495 33.2706 20.3319C33.3363 20.5746 33.4348 20.6767 33.68 20.6495C33.877 20.6268 34.0784 20.6381 34.2799 20.6359C34.4506 20.6654 34.5557 20.6245 34.5557 20.4113C34.5492 18.4766 34.547 16.5418 34.5448 14.607L34.4463 14.2078L34.339 14.0037C34.12 13.5863 33.8989 13.169 33.68 12.7516C33.3275 12.0803 32.9772 11.4066 32.6269 10.7329C32.1058 9.73041 31.5738 8.73013 31.0702 7.71852C30.9082 7.39417 30.5886 7.1923 30.2383 7.1923C28.9641 7.19911 27.0024 7.20591 25.807 7.20818C25.2421 7.20818 24.7845 7.68904 24.7933 8.27423C24.7933 8.37857 24.7955 8.48063 24.7955 8.58497C24.7999 11.9419 24.7999 18.3949 24.7977 20.1459L24.7999 20.1505ZM29.8508 23.5936C30.9192 23.5777 31.7008 22.6682 31.6964 21.5477C31.692 20.2888 30.9214 19.4723 29.7479 19.3997C28.5152 19.3226 27.6395 20.3206 27.6088 21.4842C27.5826 22.43 28.4233 23.7728 29.8508 23.5936ZM6.31709 21.4774C6.27549 22.7339 7.26509 23.6798 8.39481 23.6299C9.38223 23.5868 10.4747 22.9177 10.3653 21.2551C10.304 20.3206 9.5114 19.4746 8.46269 19.3929C7.20817 19.2954 6.22514 20.4544 6.3149 21.4774H6.31709ZM23.0571 20.1913V18.6104C23.0571 18.3972 22.8907 18.2225 22.6827 18.2225C22.4769 18.2225 22.3083 18.3949 22.3083 18.6104V20.1913C22.3083 20.4045 22.4747 20.5792 22.6827 20.5792C22.8885 20.5792 23.0571 20.4068 23.0571 20.1913Z" fill="black"/>
</svg>
