<svg width="67" height="66" viewBox="0 0 67 66" fill="none" xmlns="http://www.w3.org/2000/svg">
<g clip-path="url(#clip0_75_982)">
<path d="M59.3975 27.8202V7.90754C59.3975 3.69158 55.9617 0.26416 51.7442 0.26416H7.65341C3.43586 0.26416 6.10352e-05 3.69549 6.10352e-05 7.90754V51.9409C6.10352e-05 56.1569 3.43586 59.5843 7.65341 59.5843H29.4017C30.375 59.5843 31.1607 58.7997 31.1607 57.8277C31.1607 56.8557 30.375 56.071 29.4017 56.071H7.65341C5.37069 56.071 3.51794 54.2168 3.51794 51.9409V7.90754C3.51794 5.6278 5.3746 3.77746 7.65341 3.77746H51.7442C54.0269 3.77746 55.8797 5.63171 55.8797 7.90754V27.8319C55.8797 30.9158 59.3975 30.9158 59.3975 27.8163V27.8202Z" fill="black"/>
<path d="M66.9962 37.3724C67.0509 36.295 66.6522 35.2254 65.8744 34.3627C64.9871 33.3321 63.705 32.7388 62.3526 32.7388H39.072C36.5118 32.7388 34.4284 34.8194 34.4284 37.3763V60.6266C34.4284 63.1835 36.5118 65.2642 39.072 65.2642C58.8386 65.2563 61.9851 65.2485 62.5402 65.2368C64.0177 65.2407 65.163 64.823 65.9447 63.9994C66.9805 62.9063 66.9688 61.4893 66.961 61.2863L66.9962 37.3724ZM37.489 56.1842C37.5671 56.1296 37.6414 56.0671 37.7079 56.0007L40.8896 52.8232L45.3573 57.2851C45.6661 57.5935 46.0765 57.7652 46.5143 57.7652C46.9521 57.7652 47.3625 57.5974 47.6713 57.2851L60.0503 44.9221L63.8965 48.7633V60.3182C63.8965 61.3566 63.0483 62.2037 62.0086 62.2037H39.072C38.2004 62.2037 37.4929 61.4971 37.4929 60.6266V56.1842H37.489ZM58.8933 41.4557L46.5143 53.8186L42.0466 49.3567C41.7378 49.0483 41.3274 48.8766 40.8896 48.8766C40.4518 48.8766 40.0414 49.0483 39.7326 49.3567L37.4851 51.6013V37.3763C37.4851 36.5058 38.1925 35.7993 39.0642 35.7993H62.3447C63.1109 35.7993 63.7714 36.3575 63.9004 37.1109C63.8965 37.1812 63.8926 37.2514 63.8926 37.3217V44.1453L61.2034 41.4596C60.8946 41.1512 60.4842 40.9794 60.0464 40.9794C59.6086 40.9794 59.1982 41.1473 58.8894 41.4596L58.8933 41.4557Z" fill="black"/>
</g>
<defs>
<clipPath id="clip0_75_982">
<rect width="67" height="65" fill="white" transform="translate(6.10352e-05 0.26416)"/>
</clipPath>
</defs>
</svg>
