<svg width="65" height="62" viewBox="0 0 65 62" fill="none" xmlns="http://www.w3.org/2000/svg">
<g clip-path="url(#clip0_75_995)">
<path d="M59.1603 27.3837V7.70866C59.1603 3.543 55.7382 0.156464 51.5375 0.156464H7.62278C3.42208 0.156464 0 3.54685 0 7.70866V51.2167C0 55.3824 3.42208 58.7689 7.62278 58.7689H29.2843C30.2537 58.7689 31.0362 57.9936 31.0362 57.0332C31.0362 56.0728 30.2537 55.2975 29.2843 55.2975H7.62278C5.34919 55.2975 3.50383 53.4654 3.50383 51.2167V7.70866C3.50383 5.45612 5.35308 3.62785 7.62278 3.62785H51.5375C53.8111 3.62785 55.6564 5.45997 55.6564 7.70866V27.3953C55.6564 30.4424 59.1603 30.4424 59.1603 27.3799V27.3837Z" fill="black"/>
<path d="M59.7131 61.1565H41.2752C38.3631 61.1565 35.9922 58.8075 35.9922 55.9224V38.7699C35.9922 35.8848 38.3631 33.5358 41.2752 33.5358H59.7131C62.6252 33.5358 64.9961 35.8848 64.9961 38.7699V55.9224C64.9961 58.8075 62.6252 61.1565 59.7131 61.1565ZM41.2752 36.7835C40.1695 36.7835 39.2702 37.6745 39.2702 38.7699V55.9224C39.2702 57.0178 40.1695 57.9088 41.2752 57.9088H59.7131C60.8188 57.9088 61.7181 57.0178 61.7181 55.9224V38.7699C61.7181 37.6745 60.8188 36.7835 59.7131 36.7835H41.2752Z" fill="black"/>
<path d="M10.0599 28.618C9.61219 28.618 9.16448 28.4483 8.82188 28.1089C8.13668 27.43 8.13668 26.3307 8.82188 25.6557L27.0262 7.61995C27.7114 6.9411 28.821 6.9411 29.5023 7.61995C30.1875 8.2988 30.1875 9.39807 29.5023 10.0731L11.2979 28.1089C10.9553 28.4483 10.5076 28.618 10.0599 28.618Z" fill="black"/>
<path d="M10.0599 39.1787C9.61219 39.1787 9.16448 39.009 8.82188 38.6696C8.13668 37.9907 8.13668 36.8914 8.82188 36.2164L36.4165 8.87733C37.1017 8.19848 38.2113 8.19848 38.8926 8.87733C39.5777 9.55618 39.5777 10.6555 38.8926 11.3304L11.3018 38.6696C10.9592 39.009 10.5115 39.1787 10.0638 39.1787H10.0599Z" fill="black"/>
<path d="M21.097 38.172C20.6493 38.172 20.2016 38.0023 19.859 37.6629C19.1738 36.984 19.1738 35.8848 19.859 35.2098L38.951 16.2946C39.6362 15.6157 40.7457 15.6157 41.427 16.2946C42.1122 16.9734 42.1122 18.0727 41.427 18.7477L22.335 37.6629C21.9924 38.0023 21.5447 38.172 21.097 38.172Z" fill="black"/>
</g>
<defs>
<clipPath id="clip0_75_995">
<rect width="65" height="61" fill="white" transform="translate(0 0.156464)"/>
</clipPath>
</defs>
</svg>
