<svg width="62" height="67" viewBox="0 0 62 67" fill="none" xmlns="http://www.w3.org/2000/svg">
<path d="M61.6201 29.018V8.4256C61.6201 4.0657 58.0629 0.521271 53.6964 0.521271H8.04851C3.68202 0.521271 0.124878 4.06974 0.124878 8.4256V53.9623C0.124878 58.3222 3.68202 61.8666 8.04851 61.8666H30.5649C31.5726 61.8666 32.386 61.0552 32.386 60.05C32.386 59.0448 31.5726 58.2334 30.5649 58.2334H8.04851C5.68518 58.2334 3.767 56.3158 3.767 53.9623V8.4256C3.767 6.06803 5.68923 4.15452 8.04851 4.15452H53.6964C56.0597 4.15452 57.9779 6.07206 57.9779 8.4256V29.0301C57.9779 32.2193 61.6201 32.2193 61.6201 29.014V29.018Z" fill="black"/>
<path d="M35.7073 45.0647C36.4896 44.587 37.7886 44.1282 39.1682 44.4451C40.5479 44.762 41.6999 46.8429 41.6999 46.8429C41.6999 46.8429 41.6525 34.9815 41.681 34.9058C41.8232 34.0214 42.2973 33.3262 43.0321 32.8722C43.4778 32.5979 43.9708 32.3661 44.5303 32.3141C45.0897 32.2621 45.7866 32.3661 45.7866 32.3661C45.7866 32.3661 45.9621 31.2595 46.0995 30.8764C46.3224 30.2568 46.5689 28.5495 49.6553 28.9042C50.0298 28.9373 50.4044 29.1549 50.5561 29.2494C51.6275 29.9399 52.1159 31.6473 52.0921 31.7608C52.149 31.7277 52.7701 31.6189 53.6851 31.6662C54.8467 31.7182 56.1694 32.858 56.359 34.1633C56.4539 34.7971 56.4965 35.4355 56.5676 36.1071C56.7525 36.0835 57.4969 35.2653 58.9286 35.7382C59.5829 35.9558 60.6164 36.7929 60.6164 38.8549V53.7668C60.6164 55.3039 60.4458 56.8362 60.0617 58.3212C60.0286 58.4584 59.9906 58.5955 59.948 58.7327C59.2321 60.7947 58.0563 62.5494 56.397 63.9824C55.1453 65.0607 53.7088 65.7701 52.1727 66.3424C51.5896 66.5599 50.978 66.5552 50.3901 66.6923C49.6221 66.8721 47.6736 66.7585 47.1757 66.7302C45.9431 66.6356 44.7768 66.262 43.6769 65.737C41.8042 64.8431 40.2444 63.5142 39.0165 61.7312C38.2627 60.6339 37.727 59.4043 37.3572 58.1273C36.8689 56.4389 36.4042 54.7411 35.9349 53.0479C35.4892 51.4494 35.0483 49.8508 34.6027 48.257C34.6027 48.257 33.9152 46.1288 35.7026 45.0741L35.7073 45.0647ZM42.7903 54.2303C42.3494 53.7905 41.2116 51.6196 40.8039 50.8015C40.2302 49.6522 39.6897 48.4888 39.1303 47.3348L38.9501 47.0747C38.5946 46.7531 37.9782 46.7247 37.5042 46.999C37.196 47.1645 37.0727 47.4436 37.0443 47.7746C37.2292 48.5219 37.3856 49.2738 37.599 50.0116C38.1916 52.0737 38.7984 54.131 39.4148 56.1835C39.6897 57.0963 39.9458 58.0138 40.3061 58.8935C40.9034 60.3454 41.918 61.4947 43.1791 62.4122C44.1368 63.1122 45.1703 63.6702 46.3366 63.9445C46.4314 63.9635 47.5408 64.2803 49.2096 64.2188C50.3712 64.1763 51.509 63.8736 52.5615 63.377C52.846 63.2399 53.1731 63.0791 53.467 62.9277C54.0597 62.625 54.823 62.2278 55.2971 61.7595C55.866 61.1967 56.6909 60.3691 56.6909 60.3691C59.251 57.5645 58.6963 46.9186 58.7058 38.538C58.7058 37.403 56.7004 37.0341 56.6719 38.7698C56.6435 40.5055 56.5013 46.5402 56.5013 48.957C56.5013 51.3737 54.0549 51.5014 54.0549 49.132C54.0454 48.7725 53.9933 38.0793 53.9743 34.9011C53.9743 33.4917 52.0921 33.1985 52.0921 34.9768C52.1064 35.445 52.0922 45.1072 52.1016 49.2124C52.1016 51.5723 49.8971 51.1751 49.8971 49.2975C49.8734 48.555 49.8971 36.3105 49.8971 32.456C49.8971 31.1932 47.9959 31.0419 47.9959 32.4276C47.9959 34.6836 47.9343 45.8214 47.9343 49.7846C47.9343 51.771 45.7108 51.5251 45.7108 49.8272C45.7108 48.1293 45.6918 37.7293 45.6918 35.9274C45.6918 34.2343 43.8476 34.1586 43.8476 35.9132C43.8476 37.6678 43.8286 51.4257 43.8334 53.8472C43.8334 54.2161 43.5015 54.5141 43.1412 54.4337C43.0179 54.4053 42.8946 54.3438 42.7856 54.2303H42.7903Z" fill="black"/>
</svg>
