<svg width="32" height="26" viewBox="0 0 32 26" fill="none" xmlns="http://www.w3.org/2000/svg">
<path d="M30.8025 0.546509H1.55249C0.930225 0.546509 0.42749 1.04924 0.42749 1.67151V24.1715C0.42749 24.7938 0.930225 25.2965 1.55249 25.2965H30.8025C31.4248 25.2965 31.9275 24.7938 31.9275 24.1715V1.67151C31.9275 1.04924 31.4248 0.546509 30.8025 0.546509ZM29.3962 22.7653H2.95874V21.3625L7.82788 15.5864L13.1048 21.8442L21.3138 12.1129L29.3962 21.6965V22.7653ZM29.3962 18.202L21.5283 8.87151C21.4158 8.73792 21.2119 8.73792 21.0994 8.87151L13.1048 18.3496L8.04233 12.3485C7.92983 12.2149 7.72593 12.2149 7.61343 12.3485L2.95874 17.868V3.07776H29.3962V18.202Z" fill="black"/>
<path d="M8.86499 10.9528C9.27127 10.9528 9.67357 10.8727 10.0489 10.7173C10.4243 10.5618 10.7653 10.3339 11.0526 10.0466C11.3399 9.75934 11.5678 9.41829 11.7232 9.04294C11.8787 8.66759 11.9587 8.26529 11.9587 7.85901C11.9587 7.45273 11.8787 7.05043 11.7232 6.67508C11.5678 6.29973 11.3399 5.95868 11.0526 5.6714C10.7653 5.38412 10.4243 5.15623 10.0489 5.00076C9.67357 4.84528 9.27127 4.76526 8.86499 4.76526C8.04448 4.76526 7.25757 5.09121 6.67738 5.6714C6.09719 6.25159 5.77124 7.0385 5.77124 7.85901C5.77124 8.67952 6.09719 9.46643 6.67738 10.0466C7.25757 10.6268 8.04448 10.9528 8.86499 10.9528ZM8.86499 6.87463C9.40991 6.87463 9.84937 7.31409 9.84937 7.85901C9.84937 8.40393 9.40991 8.84338 8.86499 8.84338C8.32007 8.84338 7.88062 8.40393 7.88062 7.85901C7.88062 7.31409 8.32007 6.87463 8.86499 6.87463Z" fill="black"/>
</svg>
