<svg width="68" height="66" viewBox="0 0 68 66" fill="none" xmlns="http://www.w3.org/2000/svg">
<g clip-path="url(#clip0_75_975)">
<path d="M67.8268 42.6722C67.8228 46.39 67.815 50.1116 67.8111 53.8293C67.8111 54.7558 67.8268 56.6127 67.8268 56.6127C67.8268 56.6127 68.3216 60.3028 64.4806 60.3028C63.3848 60.3659 61.1108 60.3186 61.0755 60.3265L61.0205 62.3332C61.0205 62.3332 61.4015 65.0377 58.9233 65.0377C54.175 65.0062 49.4228 65.0101 44.6745 65.0219C42.428 65.0219 42.4398 63.2715 42.4359 63.102C42.428 62.1913 42.4359 61.2806 42.4359 60.3265C41.3127 60.3265 40.2287 60.3226 39.1447 60.3265C35.072 60.3265 35.5354 57.0898 35.5354 57.0898C35.4961 52.4692 35.4647 47.8487 35.5315 43.2321C35.559 41.316 36.9218 39.8337 38.968 39.7785C40.103 39.7469 41.242 39.7745 42.4359 39.7745C42.4359 38.8678 42.4595 37.9531 42.428 37.0464C42.4084 36.4905 42.3613 34.8504 44.1561 34.8504C45.951 34.8504 59.3474 34.8662 59.3474 34.8662C59.3474 34.8662 61.0951 34.8977 61.0951 36.4905C61.0951 38.0832 61.1423 39.8455 61.1423 39.8455C61.1423 39.8455 64.8773 39.8849 65.8434 39.9638C65.8434 39.9638 67.8307 40.1451 67.8307 42.6801L67.8268 42.6722ZM63.9622 43.6066H39.3372V56.4826H42.2984C42.2984 55.4142 42.2827 54.3774 42.3063 53.3405C42.3181 52.8792 42.4202 52.4258 41.729 52.4219C41.6111 52.4219 41.4933 52.3391 41.3794 52.2879C40.7864 52.0355 40.1423 50.9317 40.2915 50.3482C40.535 49.3941 41.2459 48.6845 42.2749 48.6845C47.95 48.6726 53.6291 48.6687 59.3042 48.6726C60.0426 48.6726 60.7849 48.7199 61.5232 48.7712C62.2655 48.8185 62.89 49.3941 63.1099 50.1984C63.2788 50.8213 62.9685 51.7162 62.3912 52.0631C62.022 52.2839 61.5979 52.4022 61.2051 52.5638V56.4668H63.9622V43.5987V43.6066ZM57.2541 52.623H46.2966V61.1859H57.2541V52.623ZM57.2541 39.1714C57.2541 38.8993 57.0342 38.6825 56.7671 38.6825C55.1019 38.6825 49.6192 38.6667 46.7561 38.6667C46.1159 38.6667 46.0727 39.6563 46.7325 39.6563C49.5956 39.6602 55.1058 39.6602 56.771 39.6602C57.042 39.6602 57.258 39.4394 57.258 39.1714H57.2541Z" fill="black"/>
<path d="M59.6263 28.8619C59.6342 28.8343 59.642 28.8106 59.6499 28.7869C59.752 28.4518 59.7638 28.101 59.6852 27.7619V7.99451C59.6852 3.73667 56.233 0.275208 51.9953 0.275208H7.68992C3.45221 0.275208 0 3.74061 0 7.99451V52.4653C0 56.7231 3.45221 60.1846 7.68992 60.1846H29.5422C30.5201 60.1846 31.3095 59.3921 31.3095 58.4105C31.3095 57.4288 30.5201 56.6364 29.5422 56.6364H7.68992C5.39629 56.6364 3.53469 54.7637 3.53469 52.4653V43.2675C3.80961 43.1729 4.06882 43.0231 4.28876 42.8023L11.1578 35.907L20.4698 45.2545C20.839 45.6251 21.3378 45.8301 21.8601 45.8301C22.3824 45.8301 22.8812 45.6212 23.2504 45.2545L47.6162 20.7956L56.3901 29.603C56.7082 29.9224 57.1128 30.1037 57.5251 30.155C57.6508 30.1826 57.7804 30.2023 57.914 30.2023C58.7073 30.2023 59.3671 29.6779 59.591 28.9565C59.6027 28.9249 59.6106 28.8894 59.6224 28.8579L59.6263 28.8619ZM47.6162 16.041C47.0939 16.041 46.5951 16.25 46.2259 16.6166L21.8601 41.0755L12.5482 31.728C12.179 31.3574 11.6802 31.1524 11.1578 31.1524C10.6355 31.1524 10.1367 31.3614 9.76753 31.728L3.53076 37.9886V7.99451C3.53076 5.69212 5.39629 3.82341 7.68599 3.82341H51.9874C54.2811 3.82341 56.1427 5.69606 56.1427 7.99451V23.7879L48.9987 16.6166C48.6295 16.246 48.1307 16.041 47.6084 16.041H47.6162Z" fill="black"/>
</g>
<defs>
<clipPath id="clip0_75_975">
<rect width="67.8464" height="64.7625" fill="white" transform="translate(0 0.275208)"/>
</clipPath>
</defs>
</svg>
