<svg width="45" height="30" viewBox="0 0 45 30" fill="none" xmlns="http://www.w3.org/2000/svg">
<path d="M29.9938 0.989044C21.9566 0.989044 15.4414 7.38724 15.4414 15.2801C15.4414 23.173 21.9566 29.5712 29.9938 29.5712C38.031 29.5712 44.5461 23.173 44.5461 15.2801C44.5461 7.38724 38.031 0.989044 29.9938 0.989044ZM29.9938 26.043C23.9414 26.043 19.0342 21.2238 19.0342 15.2801C19.0342 9.33645 23.9414 4.51731 29.9938 4.51731C36.0461 4.51731 40.9534 9.33645 40.9534 15.2801C40.9534 21.2238 36.0461 26.043 29.9938 26.043Z" fill="white"/>
<path d="M34.3642 19.5487L31.0172 16.2618V9.54965C31.0172 8.83978 30.428 8.26111 29.7051 8.26111C28.9823 8.26111 28.393 8.83978 28.393 9.54965V16.8123C28.393 17.2223 28.591 17.5878 28.8964 17.8244C28.8964 17.8244 28.8964 17.8244 28.8988 17.8268L32.5106 21.3738C33.0211 21.8751 33.8561 21.8751 34.3666 21.3738C34.8772 20.8724 34.8772 20.0524 34.3666 19.5511L34.3642 19.5487Z" fill="white"/>
<path d="M14.9142 2.40179H8.95011C8.09371 2.40179 7.39945 3.08359 7.39945 3.92462C7.39945 4.76565 8.09371 5.44744 8.95011 5.44744H14.9142C15.7706 5.44744 16.4648 4.76565 16.4648 3.92462C16.4648 3.08359 15.7706 2.40179 14.9142 2.40179Z" fill="white"/>
<path d="M10.6201 8.25879H4.65598C3.79957 8.25879 3.10532 8.94058 3.10532 9.78161C3.10532 10.6226 3.79957 11.3044 4.65598 11.3044H10.6201C11.4765 11.3044 12.1707 10.6226 12.1707 9.78161C12.1707 8.94058 11.4765 8.25879 10.6201 8.25879Z" fill="white"/>
<path d="M8.47299 14.1158H2.50891C1.65251 14.1158 0.958252 14.7976 0.958252 15.6386C0.958252 16.4797 1.65251 17.1615 2.50891 17.1615H8.47299C9.32939 17.1615 10.0236 16.4797 10.0236 15.6386C10.0236 14.7976 9.32939 14.1158 8.47299 14.1158Z" fill="white"/>
<path d="M10.3815 19.9728H4.41741C3.56101 19.9728 2.86675 20.6546 2.86675 21.4956C2.86675 22.3367 3.56101 23.0185 4.41741 23.0185H10.3815C11.2379 23.0185 11.9321 22.3367 11.9321 21.4956C11.9321 20.6546 11.2379 19.9728 10.3815 19.9728Z" fill="white"/>
<path d="M14.6756 26.0641H8.71155C7.85514 26.0641 7.16089 26.7459 7.16089 27.5869C7.16089 28.4279 7.85514 29.1097 8.71155 29.1097H14.6756C15.532 29.1097 16.2263 28.4279 16.2263 27.5869C16.2263 26.7459 15.532 26.0641 14.6756 26.0641Z" fill="white"/>
</svg>
