<svg width="26" height="29" viewBox="0 0 26 29" fill="none" xmlns="http://www.w3.org/2000/svg">
<path d="M18.2809 14.2128C18.2809 13.2899 18.0464 12.4188 17.6352 11.6604C16.7275 9.98825 14.9579 8.85217 12.9203 8.85217C9.95977 8.85217 7.55968 11.2523 7.55968 14.2128C7.55968 16.2504 8.69576 18.02 10.3679 18.9277C11.1263 19.3389 11.9944 19.5734 12.9203 19.5734C15.8808 19.5734 18.2809 17.1733 18.2809 14.2128ZM9.50899 14.2128C9.50899 13.3021 9.86535 12.4462 10.508 11.8005C11.1537 11.1548 12.0096 10.8015 12.9203 10.8015C13.831 10.8015 14.6868 11.1548 15.3326 11.8005C15.6499 12.1169 15.9015 12.4929 16.0729 12.9069C16.2444 13.3209 16.3323 13.7647 16.3316 14.2128C16.3316 15.1235 15.9752 15.9793 15.3326 16.625C15.0162 16.9423 14.6402 17.194 14.2262 17.3654C13.8122 17.5369 13.3684 17.6248 12.9203 17.6241C12.0096 17.6241 11.1537 17.2677 10.508 16.625C10.1907 16.3087 9.9391 15.9326 9.76765 15.5187C9.5962 15.1047 9.50829 14.6609 9.50899 14.2128Z" fill="black"/>
<path d="M15.4209 27.925C15.6158 27.8897 15.7954 27.7959 15.9358 27.656C16.0761 27.5162 16.1706 27.337 16.2067 27.1422L16.6849 24.5533C17.787 24.1401 18.8131 23.5473 19.7215 22.7989L22.1978 23.6791C22.3843 23.7451 22.5864 23.7527 22.7774 23.7011C22.9684 23.6494 23.1391 23.5408 23.2668 23.3898L23.3217 23.3258C24.3816 22.074 25.1979 20.6607 25.7492 19.1257L25.7766 19.0465C25.8284 18.9064 25.8436 18.7602 25.8284 18.617C25.8009 18.3764 25.6852 18.148 25.4933 17.9804L23.5044 16.2778L23.4983 16.2748C23.5927 15.6961 23.6415 15.1052 23.6415 14.5143C23.6415 13.9996 23.6049 13.4818 23.5318 12.9762C23.5227 12.9092 23.5105 12.8422 23.5014 12.7752C23.5014 12.7691 23.4983 12.7599 23.4983 12.7538L25.4933 11.0482C25.7035 10.8685 25.8253 10.6096 25.8345 10.3416C25.8375 10.2197 25.8192 10.0949 25.7766 9.97608L25.7492 9.89689C25.1999 8.36188 24.3775 6.93891 23.3217 5.69673L23.2668 5.63277C23.1388 5.48216 22.968 5.37389 22.7772 5.32224C22.5864 5.27059 22.3843 5.27797 22.1978 5.34342L19.7215 6.22365C18.8078 5.47439 17.7905 4.8835 16.6879 4.46927H16.6849L16.2067 1.88034C16.2036 1.86511 16.2006 1.84684 16.1945 1.83161C16.1505 1.64746 16.054 1.48005 15.9167 1.34974C15.7793 1.21942 15.6071 1.13182 15.4209 1.09757L15.3386 1.08234C13.7518 0.796038 12.0827 0.796038 10.4958 1.08234L10.4136 1.09757C10.2186 1.13289 10.0391 1.22669 9.8987 1.36651C9.75834 1.50633 9.66385 1.68554 9.62777 1.88034L9.14653 4.48146C8.05275 4.89577 7.03417 5.48634 6.1312 6.22974L3.63669 5.34342C3.45018 5.27745 3.24802 5.2698 3.05706 5.32149C2.8661 5.37317 2.69539 5.48174 2.56761 5.63277L2.51279 5.69673C1.45817 6.93979 0.635895 8.36253 0.0852885 9.89689L0.0578763 9.97608C-0.00559484 10.1531 -0.0166539 10.3447 0.0260252 10.5278C0.0687043 10.7109 0.163309 10.8779 0.298494 11.0086C0.313723 11.0208 0.325906 11.036 0.341135 11.0482L2.3605 12.7721V12.7752C2.26608 13.3478 2.22039 13.9295 2.22039 14.5113C2.22039 15.0961 2.26608 15.6809 2.3605 16.2504L0.341135 17.9743C0.19066 18.1032 0.0829628 18.2747 0.0323646 18.4662C-0.0182336 18.6578 -0.00933537 18.8601 0.0578763 19.0465L0.0852885 19.1257C0.636578 20.6607 1.45285 22.077 2.51279 23.3258L2.56761 23.3898C2.71686 23.5634 2.91483 23.6761 3.13109 23.7157C3.29556 23.7461 3.46917 23.737 3.63669 23.6791L6.1312 22.7928C6.13424 22.7958 6.14033 22.7989 6.14338 22.8019C7.04798 23.5421 8.05614 24.1299 9.14653 24.5411L9.62777 27.1422C9.66385 27.337 9.75834 27.5162 9.8987 27.656C10.0391 27.7959 10.2186 27.8897 10.4136 27.925L10.4958 27.9402C11.2908 28.0834 12.104 28.1565 12.9172 28.1565H12.9264C13.7365 28.1565 14.5498 28.0834 15.3386 27.9402L15.4209 27.925ZM14.2086 25.8995C13.3484 25.997 12.4799 25.997 11.6197 25.8995L11.0745 22.939L9.92321 22.4974C9.05516 22.1684 8.24802 21.6994 7.52617 21.1054L6.56979 20.3166L3.72502 21.3278C3.20723 20.6303 2.77473 19.878 2.42751 19.0861L4.72708 17.1215L4.52911 15.9032C4.45601 15.4494 4.41641 14.9803 4.41641 14.5174C4.41641 14.0514 4.45296 13.5854 4.52911 13.1315L4.72708 11.9132L2.42751 9.94867C2.77168 9.15371 3.20723 8.40445 3.72502 7.70696L6.56979 8.71816L7.52617 7.9293C8.24802 7.33537 9.05516 6.86632 9.92321 6.53737L11.0776 6.10182L11.6228 3.1413C12.4786 3.04384 13.3528 3.04384 14.2117 3.1413L14.7569 6.09573L15.9173 6.53128C16.7915 6.86023 17.6047 7.32928 18.3327 7.92625L19.289 8.71207L22.1155 7.71C22.6333 8.40749 23.0658 9.1598 23.413 9.95171L21.1378 11.898L21.3358 13.1133C21.412 13.5732 21.4515 14.0453 21.4515 14.5174C21.4515 14.9895 21.412 15.4616 21.3358 15.9215L21.1348 17.1428L23.41 19.0891C23.0651 19.8837 22.6297 20.6359 22.1125 21.3308L19.286 20.3288L18.3296 21.1146C17.6017 21.7115 16.7915 22.1806 15.9143 22.5095L14.7538 22.9451L14.2086 25.8995Z" fill="black"/>
</svg>
